<svg width="166" height="35" viewBox="0 0 166 35" fill="none" xmlns="http://www.w3.org/2000/svg">
<path d="M2.79447 25.6371C0.403263 25.6371 0.0731835 25.086 0.0731835 23.9449C0.0731835 20.8921 0.183711 17.4718 0.183711 14.2711C0.183711 9.93075 0 5.25886 0 1.39798C0 0.515282 0.442096 0 1.61903 0C2.31802 0 6.80471 0.0373393 10.8149 0.0373393H15.2284C16.368 0.0373393 16.6996 0.404757 16.6996 2.68544C16.6996 5.14983 16.4786 5.4814 15.1911 5.4814C14.3816 5.44406 11.7335 5.4814 9.34228 5.4814H6.58365V10.2265C9.34228 10.1891 11.5498 10.116 13.7199 10.116C14.8237 10.116 15.448 10.4102 15.448 13.1688C15.448 14.9342 15.0806 15.4853 14.0874 15.5227C11.2914 15.6705 9.4528 15.7064 6.58365 15.7437V23.2101C6.58365 25.0128 6.25208 25.6371 2.79447 25.6371Z" fill="white"/>
<path d="M28.0269 6.9884C33.5442 6.9884 37.075 10.446 37.075 16.2202C37.075 21.9943 32.772 26.1151 27.2906 26.1151C21.8092 26.1151 18.0215 22.5843 18.0215 16.9192C18.0215 10.6656 22.5828 6.9884 28.0254 6.9884H28.0269ZM27.5848 20.2304C29.5339 20.2304 30.8587 18.7592 30.8587 16.368C30.8587 13.9768 29.4607 12.8731 27.6221 12.8731C25.673 12.8731 24.2019 14.2337 24.2019 16.7713C24.2019 19.052 25.7836 20.2289 27.5863 20.2289L27.5848 20.2304Z" fill="white"/>
<path d="M47.0057 1.69223C48.3663 1.69223 48.6606 2.53759 48.6606 4.30299C48.6606 4.96464 48.6232 6.10573 48.5874 7.5769H53.1114C54.3257 7.5769 54.5452 8.09218 54.5452 10.1877C54.5452 12.2831 54.3242 12.7626 52.5961 12.7626H48.4395C48.4395 14.2711 48.4022 15.8154 48.4022 17.3971C48.4022 19.6778 49.2117 20.3395 51.0503 20.7069C51.8224 20.8547 52.0062 21.3327 52.0062 22.2154C52.0062 24.3482 51.3072 26.0778 49.9465 26.0778C43.5839 26.0778 42.2218 22.069 42.2218 17.7645C42.2218 15.8513 42.2218 14.2337 42.2591 12.7626H39.8679C38.691 12.7626 38.4341 12.2114 38.4341 10.1877C38.4341 8.16387 38.6551 7.5769 39.8679 7.5769H42.3696C42.407 6.51049 42.4802 5.47992 42.5175 4.4867C42.6654 2.4644 45.1656 1.69073 47.0042 1.69073L47.0057 1.69223Z" fill="white"/>
<path d="M65.8379 6.9884C71.3552 6.9884 74.886 10.446 74.886 16.2202C74.886 21.9943 70.583 26.1151 65.1016 26.1151C59.6202 26.1151 55.8325 22.5843 55.8325 16.9192C55.8325 10.6656 60.3939 6.9884 65.8365 6.9884H65.8379ZM65.3959 20.2304C67.345 20.2304 68.6698 18.7592 68.6698 16.368C68.6698 13.9768 67.2718 12.8731 65.4332 12.8731C63.4841 12.8731 62.0129 14.2337 62.0129 16.7713C62.0129 19.052 63.5946 20.2289 65.3973 20.2289L65.3959 20.2304Z" fill="white"/>
<path d="M79.446 32.3313C79.446 31.3381 80.0345 28.5063 81.2846 28.5063C82.1673 28.5063 83.6011 29.0574 85.368 29.0574C87.8698 29.0574 89.3036 28.1015 89.6352 24.5707C89.6725 24.2391 89.7083 23.5401 89.7083 22.6216C88.4209 24.387 86.6181 25.1965 84.448 25.1965C79.8866 25.1965 77.2385 21.8121 77.2385 16.5159C77.2385 10.8149 80.8067 7.06308 85.6249 7.06308C87.3171 7.06308 88.7151 7.61421 89.7442 8.46106V8.24002C89.7442 6.95256 91.1422 6.65833 93.8276 6.65833C95.5557 6.65833 96.0351 7.17361 96.0351 8.60743C96.0351 10.5565 95.484 20.6725 95.0792 24.6812C94.3429 31.9639 91.1063 34.3551 85.8101 34.3551C84.0074 34.3551 82.1315 34.0609 80.9187 33.7666C79.8523 33.4724 79.4475 33.1782 79.4475 32.3328L79.446 32.3313ZM86.5076 19.5687C87.7577 19.5687 89.45 19.6061 89.6337 13.7199C89.0079 13.0941 87.9056 12.6535 86.8377 12.6535C84.4465 12.6535 83.5279 14.1979 83.5279 16.0006C83.5279 17.9871 84.6675 19.5687 86.5076 19.5687Z" fill="white"/>
<path d="M104.568 7.28265C106.223 7.28265 106.444 7.65007 106.444 8.49692C106.444 9.52748 106.333 11.0718 106.187 12.6894C107.143 9.08539 108.908 7.09894 111.815 7.09894C112.514 7.09894 112.918 7.20946 113.359 7.43051C113.764 7.61422 114.021 7.90845 114.021 8.46107C114.021 9.93224 112.917 14.0515 111.556 14.0515C111.114 14.0515 110.6 13.7573 109.423 13.7573C108.246 13.7573 107.326 14.0515 106.775 15.7064C106.481 16.6623 106.37 18.0229 106.37 21.7748C106.37 25.0113 105.671 25.7477 102.398 25.7477C101 25.7477 100.044 25.3429 100.044 23.8344C100.044 20.7442 100.265 11.9172 100.265 9.04805C100.265 7.57688 101.11 7.28265 104.568 7.28265Z" fill="white"/>
<path d="M129.248 25.9672C127.555 25.9672 127.261 25.3414 127.188 24.4229L127.077 23.0981C125.79 25.195 123.914 26.1136 121.633 26.1136C117.072 26.1136 114.424 22.5454 114.424 16.955C114.424 10.9957 117.992 6.98691 122.81 6.98691C124.576 6.98691 126.011 7.61271 127.077 8.5686C127.482 7.42901 128.622 7.17062 130.867 7.17062C132.816 7.17062 133.183 7.75908 133.183 9.19291C133.183 11.2899 133.146 13.3495 133.146 15.336C133.146 22.2139 133.624 22.4722 133.624 24.1271C133.624 25.4878 131.896 25.9657 129.246 25.9657L129.248 25.9672ZM123.693 20.2289C124.943 20.2289 126.635 20.2289 126.819 14.0127C126.193 13.351 125.091 12.8731 124.023 12.8731C121.632 12.8731 120.713 14.5279 120.713 16.4412C120.713 18.5382 121.853 20.2304 123.693 20.2304V20.2289Z" fill="white"/>
<path d="M141.973 7.28264C143.628 7.28264 144.07 7.76058 144.07 8.64328C144.07 9.26909 144.033 10.0413 143.959 10.8866C144.915 8.27586 146.681 6.9884 149.293 6.9884C151.905 6.9884 153.78 8.42223 154.589 11.2555C155.545 8.49691 157.496 6.9884 160.254 6.9884C163.601 6.9884 165.882 9.56332 165.882 14.3816C165.882 17.0297 165.698 21.3327 165.44 24.2391C165.329 25.4161 164.925 25.8208 163.601 25.8208C159.739 25.8208 159.298 25.2324 159.298 23.7239C159.298 21.2595 159.593 21.2221 159.593 17.8019C159.593 14.1979 158.931 12.8731 157.385 12.8731C155.104 12.8731 154.847 15.1896 154.81 18.1334C154.737 20.7442 154.662 22.2168 154.662 23.5401C154.662 25.5624 153.448 25.7103 151.094 25.7103C149.108 25.7103 148.409 24.8276 148.409 23.0249C148.409 20.5978 148.63 18.2066 148.63 16.8086C148.63 13.9395 147.82 12.8731 146.643 12.8731C145.318 12.8731 144.4 13.2405 144.106 17.2507C143.958 18.5382 143.995 19.3477 143.995 21.6642C143.995 25.1218 143.553 25.7476 140.685 25.7476C138.184 25.7476 137.67 25.1965 137.67 23.5775C137.67 19.9735 137.891 13.242 137.891 9.30642C137.891 7.57836 138.7 7.28413 141.974 7.28413L141.973 7.28264Z" fill="white"/>
</svg>
